<svg width="20" height="20" viewBox="0 0 20 20" fill="none" xmlns="http://www.w3.org/2000/svg">
<rect x="0.5" y="-0.5" width="19" height="19" rx="9.5" transform="matrix(1 0 0 -1 0 19)" stroke="#F4EEDF"/>
<path d="M6 11.4998C5.99988 11.4292 6.0118 11.3593 6.035 11.2949C6.05816 11.2305 6.09204 11.173 6.1344 11.1263L9.7345 7.1263C9.80766 7.04494 9.90219 7 10.0001 7C10.098 7 10.1926 7.04494 10.2657 7.1263L13.8658 11.1263C13.9051 11.1699 13.937 11.2227 13.9599 11.2818C13.9829 11.3408 13.9962 11.4049 13.9993 11.4704C14.0024 11.5359 13.9951 11.6016 13.9779 11.6636C13.9607 11.7256 13.9339 11.7827 13.899 11.8318C13.8641 11.8808 13.8219 11.9208 13.7746 11.9494C13.7274 11.9781 13.6761 11.9948 13.6237 11.9986C13.5713 12.0025 13.5188 11.9934 13.4692 11.9719C13.4196 11.9504 13.3738 11.9169 13.3346 11.8733L10.0001 8.16829L6.66562 11.8733C6.60806 11.9375 6.53686 11.9795 6.46061 11.9942C6.38437 12.0089 6.30633 11.9957 6.23597 11.9562C6.16557 11.9167 6.10584 11.8526 6.06396 11.7716C6.02212 11.6906 5.99988 11.5962 6 11.4998Z" fill="#F4EEDF"/>
</svg>
